<?xml version="1.0" encoding="UTF-8"?>
<!DOCTYPE svg PUBLIC "-//W3C//DTD SVG 1.1//EN" "http://www.w3.org/Graphics/SVG/1.1/DTD/svg11.dtd">
<svg xmlns="http://www.w3.org/2000/svg" version="1.1" width="763px" height="266px" style="shape-rendering:geometricPrecision; text-rendering:geometricPrecision; image-rendering:optimizeQuality; fill-rule:evenodd; clip-rule:evenodd" xmlns:xlink="http://www.w3.org/1999/xlink">
<g><path style="opacity:0.994" fill="#b64e89" d="M 93.5,-0.5 C 94.5,-0.5 95.5,-0.5 96.5,-0.5C 109.833,5.83333 123.167,12.1667 136.5,18.5C 122.325,26.0833 108.659,34.4167 95.5,43.5C 76.8996,54.1101 58.5663,65.1101 40.5,76.5C 26.4187,83.3754 12.752,91.042 -0.5,99.5C -0.5,84.1667 -0.5,68.8333 -0.5,53.5C 31.1675,36.0021 62.5008,18.0021 93.5,-0.5 Z"/></g>
<g><path style="opacity:0.991" fill="#621165" d="M 136.5,18.5 C 135.509,85.828 134.843,153.161 134.5,220.5C 133.517,235.422 133.184,250.422 133.5,265.5C 132.833,265.5 132.167,265.5 131.5,265.5C 119.93,259.131 108.097,253.131 96,247.5C 95.5,179.501 95.3333,111.501 95.5,43.5C 108.659,34.4167 122.325,26.0833 136.5,18.5 Z"/></g>
<g><path style="opacity:0.988" fill="#621165" d="M 231.5,66.5 C 231.829,81.3428 231.496,96.0095 230.5,110.5C 216.763,103.298 202.763,96.6315 188.5,90.5C 175.142,83.0679 161.642,75.7346 148,68.5C 147.167,52.8227 147.334,37.156 148.5,21.5C 176.388,36.2742 204.055,51.2742 231.5,66.5 Z"/></g>
<g><path style="opacity:0.97" fill="#363334" d="M 302.5,49.5 C 310.561,49.1785 318.561,49.6785 326.5,51C 336.842,56.1537 339.342,63.9871 334,74.5C 332.786,76.0488 331.286,77.2155 329.5,78C 339.53,82.2336 343.03,89.7336 340,100.5C 338.098,105.4 334.598,108.567 329.5,110C 319.651,111.742 309.817,111.908 300,110.5C 299.5,90.5028 299.333,70.5028 299.5,50.5C 300.791,50.7373 301.791,50.404 302.5,49.5 Z M 311.5,59.5 C 321.15,57.3671 325.317,61.0338 324,70.5C 320.613,74.0391 316.447,75.3724 311.5,74.5C 311.5,69.5 311.5,64.5 311.5,59.5 Z M 311.5,84.5 C 315.936,84.2101 320.27,84.7101 324.5,86C 328.034,90.0756 328.367,94.409 325.5,99C 321.078,101.104 316.412,101.937 311.5,101.5C 311.5,95.8333 311.5,90.1667 311.5,84.5 Z"/></g>
<g><path style="opacity:0.957" fill="#363334" d="M 552.5,49.5 C 558.245,49.2111 563.912,49.7111 569.5,51C 571.401,59.3296 568.234,62.163 560,59.5C 553.607,59.2731 551.274,62.2731 553,68.5C 553.903,69.7014 555.069,70.5348 556.5,71C 562.5,71.6667 568.5,71.6667 574.5,71C 577.5,67.3333 580.5,63.6667 583.5,60C 584.448,59.5172 585.448,59.3505 586.5,59.5C 586.5,63.5 586.5,67.5 586.5,71.5C 594.525,69.9116 597.191,72.9116 594.5,80.5C 591.914,81.48 589.247,81.8134 586.5,81.5C 587.539,105.283 576.206,115.116 552.5,111C 538.184,106.53 534.017,97.3636 540,83.5C 541.5,80.6667 543.667,78.5 546.5,77C 539.189,71.5155 537.689,64.6822 542,56.5C 544.998,53.2623 548.498,50.9289 552.5,49.5 Z M 556.5,81.5 C 562.5,81.5 568.5,81.5 574.5,81.5C 576.415,96.4211 570.081,102.588 555.5,100C 549.053,93.5589 549.387,87.3922 556.5,81.5 Z"/></g>
<g><path style="opacity:0.954" fill="#363334" d="M 350.5,66.5 C 356.105,65.0986 359.605,67.0986 361,72.5C 364.54,67.4323 369.207,65.7656 375,67.5C 375.667,70.8333 375.667,74.1667 375,77.5C 371.471,78.1307 367.971,78.964 364.5,80C 363.54,81.4194 362.707,82.9194 362,84.5C 361.819,93.4113 361.319,102.245 360.5,111C 356.577,111.793 352.744,111.626 349,110.5C 348.833,103.333 348.667,96.1667 348.5,89C 348.534,81.2654 349.201,73.7654 350.5,66.5 Z"/></g>
<g><path style="opacity:0.951" fill="#363334" d="M 379.5,66.5 C 382.85,66.335 386.183,66.5017 389.5,67C 390.428,67.3879 391.095,68.0546 391.5,69C 394.569,80.4419 397.402,91.9419 400,103.5C 403.012,91.7839 406.179,80.1172 409.5,68.5C 413.687,66.0198 418.02,65.8531 422.5,68C 416.54,88.0063 410.04,107.84 403,127.5C 401.2,129.317 399.034,130.484 396.5,131C 392.129,131.629 387.796,131.463 383.5,130.5C 383.508,127.455 383.841,124.455 384.5,121.5C 393.543,123.288 397.71,119.621 397,110.5C 393.914,112.22 391.581,111.553 390,108.5C 386.333,96.1667 382.667,83.8333 379,71.5C 378.36,69.735 378.527,68.0683 379.5,66.5 Z"/></g>
<g><path style="opacity:0.951" fill="#363334" d="M 434.5,66.5 C 439.511,66.3341 444.511,66.5007 449.5,67C 455.904,68.2815 459.737,72.1148 461,78.5C 461.5,88.828 461.666,99.1613 461.5,109.5C 453.273,111.402 444.94,111.902 436.5,111C 427.206,108.255 423.706,102.089 426,92.5C 428.796,87.0102 433.296,83.8435 439.5,83C 442.817,82.5017 446.15,82.335 449.5,82.5C 449.607,80.0968 448.607,78.2635 446.5,77C 440.896,76.7706 435.396,76.6039 430,76.5C 427.12,70.9304 428.62,67.5971 434.5,66.5 Z M 442.5,90.5 C 444.792,90.2436 446.959,90.5769 449,91.5C 449.498,94.8168 449.665,98.1501 449.5,101.5C 446.15,101.665 442.817,101.498 439.5,101C 436.216,96.1551 437.216,92.6551 442.5,90.5 Z"/></g>
<g><path style="opacity:0.958" fill="#363334" d="M 473.5,66.5 C 478.487,65.3491 481.987,67.0158 484,71.5C 492,64.8333 500,64.8333 508,71.5C 508.862,73.087 509.529,74.7536 510,76.5C 510.82,88.0762 510.654,99.5762 509.5,111C 505.909,111.789 502.409,111.622 499,110.5C 498.9,100.108 498.233,89.7749 497,79.5C 491.33,75.9257 487.33,77.259 485,83.5C 484.667,92.5 484.333,101.5 484,110.5C 480,111.833 476,111.833 472,110.5C 471.833,103.333 471.667,96.1667 471.5,89C 471.534,81.2654 472.201,73.7654 473.5,66.5 Z"/></g>
<g><path style="opacity:0.36" fill="#882d75" d="M 231.5,66.5 C 232.833,81.8333 232.833,97.1667 231.5,112.5C 231.167,111.833 230.833,111.167 230.5,110.5C 231.496,96.0095 231.829,81.3428 231.5,66.5 Z"/></g>
<g><path style="opacity:0.984" fill="#621165" d="M 40.5,76.5 C 55.1667,85.1667 69.8333,93.8333 84.5,102.5C 70.0347,109.9 55.7014,117.566 41.5,125.5C 27.8385,116.666 13.8385,108.333 -0.5,100.5C -0.5,100.167 -0.5,99.8333 -0.5,99.5C 12.752,91.042 26.4187,83.3754 40.5,76.5 Z"/></g>
<g><path style="opacity:0.995" fill="#b64e89" d="M 188.5,90.5 C 202.763,96.6315 216.763,103.298 230.5,110.5C 230.833,111.167 231.167,111.833 231.5,112.5C 217.003,120.581 202.669,128.914 188.5,137.5C 174.699,144.901 161.032,152.568 147.5,160.5C 147.167,144.819 147.501,129.152 148.5,113.5C 161.861,105.822 175.194,98.1549 188.5,90.5 Z"/></g>
<g><path style="opacity:0.996" fill="#b64e89" d="M 84.5,102.5 C 84.6666,116.837 84.4999,131.171 84,145.5C 69.5194,154.319 55.0194,162.985 40.5,171.5C 38.6916,171.491 37.0249,171.991 35.5,173C 23.6079,180.11 11.6079,186.943 -0.5,193.5C -0.5,178.5 -0.5,163.5 -0.5,148.5C 13.5,140.833 27.5,133.167 41.5,125.5C 55.7014,117.566 70.0347,109.9 84.5,102.5 Z"/></g>
<g><path style="opacity:0.97" fill="#363334" d="M 302.5,133.5 C 310.561,133.179 318.561,133.679 326.5,135C 336.842,140.154 339.342,147.987 334,158.5C 332.786,160.049 331.286,161.215 329.5,162C 339.53,166.234 343.03,173.734 340,184.5C 338.098,189.4 334.598,192.567 329.5,194C 319.651,195.742 309.817,195.908 300,194.5C 299.5,174.503 299.333,154.503 299.5,134.5C 300.791,134.737 301.791,134.404 302.5,133.5 Z M 311.5,143.5 C 321.15,141.367 325.317,145.034 324,154.5C 320.613,158.039 316.447,159.372 311.5,158.5C 311.5,153.5 311.5,148.5 311.5,143.5 Z M 311.5,168.5 C 315.936,168.21 320.27,168.71 324.5,170C 328.034,174.076 328.367,178.409 325.5,183C 321.078,185.104 316.412,185.937 311.5,185.5C 311.5,179.833 311.5,174.167 311.5,168.5 Z"/></g>
<g><path style="opacity:0.969" fill="#363334" d="M 439.5,132.5 C 442.167,132.833 444.833,133.167 447.5,133.5C 447.667,153.836 447.5,174.169 447,194.5C 443.333,195.833 439.667,195.833 436,194.5C 435.5,174.169 435.333,153.836 435.5,133.5C 437.099,133.768 438.432,133.434 439.5,132.5 Z"/></g>
<g><path style="opacity:0.95" fill="#363334" d="M 483.5,132.5 C 486.482,132.963 489.482,133.296 492.5,133.5C 492.333,150.17 492.5,166.837 493,183.5C 494.972,185.442 497.139,185.776 499.5,184.5C 501.372,187.718 501.705,191.052 500.5,194.5C 492.507,196.883 486.007,194.883 481,188.5C 479.553,170.222 479.053,151.889 479.5,133.5C 481.099,133.768 482.432,133.434 483.5,132.5 Z"/></g>
<g><path style="opacity:0.95" fill="#363334" d="M 725.5,132.5 C 728.482,132.963 731.482,133.296 734.5,133.5C 734.333,150.17 734.5,166.837 735,183.5C 736.972,185.442 739.139,185.776 741.5,184.5C 743.372,187.718 743.705,191.052 742.5,194.5C 734.507,196.883 728.007,194.883 723,188.5C 721.553,170.222 721.053,151.889 721.5,133.5C 723.099,133.768 724.432,133.434 725.5,132.5 Z"/></g>
<g><path style="opacity:0.994" fill="#363334" d="M 621.5,133.5 C 624.167,133.833 626.833,134.167 629.5,134.5C 629.667,154.503 629.5,174.503 629,194.5C 625.198,195.806 621.365,195.806 617.5,194.5C 616.5,174.511 616.167,154.511 616.5,134.5C 618.415,134.784 620.081,134.451 621.5,133.5 Z"/></g>
<g><path style="opacity:0.989" fill="#621165" d="M 188.5,137.5 C 203,145.915 217.333,154.582 231.5,163.5C 231.829,178.343 231.496,193.01 230.5,207.5C 217.659,200.246 204.659,193.246 191.5,186.5C 176.468,178.323 161.801,169.656 147.5,160.5C 161.032,152.568 174.699,144.901 188.5,137.5 Z"/></g>
<g><path style="opacity:0.954" fill="#363334" d="M 700.5,138.5 C 701.5,138.5 702.5,138.5 703.5,138.5C 703.5,142.833 703.5,147.167 703.5,151.5C 706.833,151.5 710.167,151.5 713.5,151.5C 713.5,154.5 713.5,157.5 713.5,160.5C 710.167,160.5 706.833,160.5 703.5,160.5C 703.334,167.508 703.5,174.508 704,181.5C 706.542,185.513 710.042,186.513 714.5,184.5C 715.207,187.786 715.54,191.119 715.5,194.5C 708.996,196.116 702.662,195.616 696.5,193C 694.383,191.269 692.883,189.102 692,186.5C 691.5,177.84 691.334,169.173 691.5,160.5C 689.5,160.5 687.5,160.5 685.5,160.5C 685.351,159.448 685.517,158.448 686,157.5C 691.049,151.29 695.883,144.957 700.5,138.5 Z"/></g>
<g><path style="opacity:0.964" fill="#363334" d="M 361.5,150.5 C 380.569,149.569 388.902,158.569 386.5,177.5C 377.5,177.5 368.5,177.5 359.5,177.5C 359.469,181.597 361.469,184.097 365.5,185C 370.989,185.932 376.323,185.432 381.5,183.5C 384.063,186.505 384.73,189.838 383.5,193.5C 373.61,196.575 363.943,196.075 354.5,192C 344.653,180.694 343.986,168.86 352.5,156.5C 355.084,153.72 358.084,151.72 361.5,150.5 Z M 366.5,159.5 C 371.372,160.037 374.372,162.704 375.5,167.5C 370.208,168.495 364.875,168.828 359.5,168.5C 359.274,163.403 361.607,160.403 366.5,159.5 Z"/></g>
<g><path style="opacity:0.944" fill="#363334" d="M 408.5,150.5 C 414.839,150.058 421.006,150.725 427,152.5C 427.46,155.304 426.96,157.971 425.5,160.5C 408.757,158.09 402.924,165.09 408,181.5C 408.833,182.333 409.667,183.167 410.5,184C 415.655,185.303 420.821,185.803 426,185.5C 427.289,188.351 427.789,191.351 427.5,194.5C 401.738,199.569 390.905,189.236 395,163.5C 397.442,156.888 401.942,152.555 408.5,150.5 Z"/></g>
<g><path style="opacity:0.951" fill="#363334" d="M 461.5,150.5 C 465.308,150.163 468.974,150.663 472.5,152C 468.833,158.333 465.167,164.667 461.5,171C 465.833,178.667 470.167,186.333 474.5,194C 470.299,195.818 465.966,195.985 461.5,194.5C 457.04,187.082 452.707,179.582 448.5,172C 451.961,165.578 455.294,159.078 458.5,152.5C 459.602,151.824 460.602,151.158 461.5,150.5 Z"/></g>
<g><path style="opacity:0.964" fill="#363334" d="M 519.5,150.5 C 538.569,149.569 546.902,158.569 544.5,177.5C 535.5,177.5 526.5,177.5 517.5,177.5C 517.469,181.597 519.469,184.097 523.5,185C 528.989,185.932 534.323,185.432 539.5,183.5C 542.063,186.505 542.73,189.838 541.5,193.5C 531.61,196.575 521.943,196.075 512.5,192C 502.653,180.694 501.986,168.86 510.5,156.5C 513.084,153.72 516.084,151.72 519.5,150.5 Z M 524.5,159.5 C 529.372,160.037 532.372,162.704 533.5,167.5C 528.208,168.495 522.875,168.828 517.5,168.5C 517.274,163.403 519.607,160.403 524.5,159.5 Z"/></g>
<g><path style="opacity:0.951" fill="#363334" d="M 549.5,150.5 C 552.85,150.335 556.183,150.502 559.5,151C 560.428,151.388 561.095,152.055 561.5,153C 564.569,164.442 567.402,175.942 570,187.5C 573.012,175.784 576.179,164.117 579.5,152.5C 583.687,150.02 588.02,149.853 592.5,152C 586.54,172.006 580.04,191.84 573,211.5C 571.2,213.317 569.034,214.484 566.5,215C 562.129,215.629 557.796,215.463 553.5,214.5C 553.508,211.455 553.841,208.455 554.5,205.5C 563.543,207.288 567.71,203.621 567,194.5C 563.914,196.22 561.581,195.553 560,192.5C 556.333,180.167 552.667,167.833 549,155.5C 548.36,153.735 548.527,152.068 549.5,150.5 Z"/></g>
<g><path style="opacity:0.958" fill="#363334" d="M 642.5,150.5 C 647.487,149.349 650.987,151.016 653,155.5C 661,148.833 669,148.833 677,155.5C 677.862,157.087 678.529,158.754 679,160.5C 679.82,172.076 679.654,183.576 678.5,195C 674.909,195.789 671.409,195.622 668,194.5C 667.9,184.108 667.233,173.775 666,163.5C 660.33,159.926 656.33,161.259 654,167.5C 653.667,176.5 653.333,185.5 653,194.5C 649,195.833 645,195.833 641,194.5C 640.833,187.333 640.667,180.167 640.5,173C 640.534,165.265 641.201,157.765 642.5,150.5 Z"/></g>
<g><path style="opacity:0.358" fill="#882e75" d="M 231.5,163.5 C 232.833,178.833 232.833,194.167 231.5,209.5C 231.167,208.833 230.833,208.167 230.5,207.5C 231.496,193.01 231.829,178.343 231.5,163.5 Z"/></g>
<g><path style="opacity:0.974" fill="#621065" d="M 40.5,171.5 C 55.0188,179.68 69.5188,188.013 84,196.5C 84.6667,212.167 84.6667,227.833 84,243.5C 55.724,227.281 27.5573,210.948 -0.5,194.5C -0.5,194.167 -0.5,193.833 -0.5,193.5C 11.6079,186.943 23.6079,180.11 35.5,173C 37.0249,171.991 38.6916,171.491 40.5,171.5 Z"/></g>
<g><path style="opacity:0.905" fill="#363334" d="M 762.5,182.5 C 762.5,186.5 762.5,190.5 762.5,194.5C 749.814,198.838 745.481,194.671 749.5,182C 753.92,181.232 758.253,181.398 762.5,182.5 Z"/></g>
<g><path style="opacity:0.993" fill="#b64e89" d="M 191.5,186.5 C 204.659,193.246 217.659,200.246 230.5,207.5C 230.833,208.167 231.167,208.833 231.5,209.5C 198.968,227.929 166.635,246.596 134.5,265.5C 134.167,265.5 133.833,265.5 133.5,265.5C 133.184,250.422 133.517,235.422 134.5,220.5C 153.701,209.404 172.701,198.07 191.5,186.5 Z"/></g>
</svg>
