<?xml version="1.0" encoding="UTF-8"?>
<!DOCTYPE svg PUBLIC "-//W3C//DTD SVG 1.1//EN" "http://www.w3.org/Graphics/SVG/1.1/DTD/svg11.dtd">
<svg xmlns="http://www.w3.org/2000/svg" version="1.1" width="1085px" height="266px" style="shape-rendering:geometricPrecision; text-rendering:geometricPrecision; image-rendering:optimizeQuality; fill-rule:evenodd; clip-rule:evenodd" xmlns:xlink="http://www.w3.org/1999/xlink">
<g><path style="opacity:0.994" fill="#b64e89" d="M 93.5,-0.5 C 94.5,-0.5 95.5,-0.5 96.5,-0.5C 109.833,5.83333 123.167,12.1667 136.5,18.5C 122.325,26.0833 108.659,34.4167 95.5,43.5C 76.8823,54.1373 58.549,65.1373 40.5,76.5C 26.4187,83.3754 12.752,91.042 -0.5,99.5C -0.5,84.1667 -0.5,68.8333 -0.5,53.5C 31.1675,36.0021 62.5008,18.0021 93.5,-0.5 Z"/></g>
<g><path style="opacity:0.988" fill="#621165" d="M 136.5,18.5 C 135.676,85.8311 135.009,153.164 134.5,220.5C 133.517,235.422 133.184,250.422 133.5,265.5C 132.833,265.5 132.167,265.5 131.5,265.5C 119.93,259.131 108.097,253.131 96,247.5C 95.5,179.501 95.3333,111.501 95.5,43.5C 108.659,34.4167 122.325,26.0833 136.5,18.5 Z"/></g>
<g><path style="opacity:0.986" fill="#621165" d="M 231.5,66.5 C 231.829,81.3428 231.496,96.0095 230.5,110.5C 217.73,104.281 205.064,97.7814 192.5,91C 191.207,90.51 189.873,90.3433 188.5,90.5C 175.142,83.0679 161.642,75.7346 148,68.5C 147.167,52.8227 147.334,37.156 148.5,21.5C 176.388,36.2742 204.055,51.2742 231.5,66.5 Z"/></g>
<g><path style="opacity:0.545" fill="#852a74" d="M 231.5,66.5 C 232.496,81.324 232.829,96.324 232.5,111.5C 231.508,111.672 230.842,111.338 230.5,110.5C 231.496,96.0095 231.829,81.3428 231.5,66.5 Z"/></g>
<g><path style="opacity:0.985" fill="#631165" d="M 40.5,76.5 C 55.1667,85.1667 69.8333,93.8333 84.5,102.5C 70.0078,109.912 55.6744,117.579 41.5,125.5C 27.8385,116.666 13.8385,108.333 -0.5,100.5C -0.5,100.167 -0.5,99.8333 -0.5,99.5C 12.752,91.042 26.4187,83.3754 40.5,76.5 Z"/></g>
<g><path style="opacity:0.995" fill="#b64e89" d="M 188.5,90.5 C 189.873,90.3433 191.207,90.51 192.5,91C 205.064,97.7814 217.73,104.281 230.5,110.5C 230.842,111.338 231.508,111.672 232.5,111.5C 217.869,120.152 203.202,128.819 188.5,137.5C 174.699,144.901 161.032,152.568 147.5,160.5C 147.167,144.819 147.501,129.152 148.5,113.5C 161.861,105.822 175.194,98.1549 188.5,90.5 Z"/></g>
<g><path style="opacity:0.997" fill="#b64e89" d="M 84.5,102.5 C 84.6666,116.837 84.4999,131.171 84,145.5C 69.5194,154.319 55.0194,162.985 40.5,171.5C 38.6916,171.491 37.0249,171.991 35.5,173C 23.6079,180.11 11.6079,186.943 -0.5,193.5C -0.5,178.5 -0.5,163.5 -0.5,148.5C 13.5,140.833 27.5,133.167 41.5,125.5C 55.6744,117.579 70.0078,109.912 84.5,102.5 Z"/></g>
<g><path style="opacity:0.97" fill="#363334" d="M 302.5,114.5 C 310.561,114.179 318.561,114.679 326.5,116C 336.842,121.154 339.342,128.987 334,139.5C 332.786,141.049 331.286,142.215 329.5,143C 339.53,147.234 343.03,154.734 340,165.5C 338.098,170.4 334.598,173.567 329.5,175C 319.651,176.742 309.817,176.908 300,175.5C 299.5,155.503 299.333,135.503 299.5,115.5C 300.791,115.737 301.791,115.404 302.5,114.5 Z M 311.5,124.5 C 321.15,122.367 325.317,126.034 324,135.5C 320.613,139.039 316.447,140.372 311.5,139.5C 311.5,134.5 311.5,129.5 311.5,124.5 Z M 311.5,149.5 C 315.936,149.21 320.27,149.71 324.5,151C 328.034,155.076 328.367,159.409 325.5,164C 321.078,166.104 316.412,166.937 311.5,166.5C 311.5,160.833 311.5,155.167 311.5,149.5 Z"/></g>
<g><path style="opacity:0.957" fill="#363334" d="M 552.5,114.5 C 558.245,114.211 563.912,114.711 569.5,116C 571.401,124.33 568.234,127.163 560,124.5C 553.607,124.273 551.274,127.273 553,133.5C 553.903,134.701 555.069,135.535 556.5,136C 562.5,136.667 568.5,136.667 574.5,136C 577.5,132.333 580.5,128.667 583.5,125C 584.448,124.517 585.448,124.351 586.5,124.5C 586.5,128.5 586.5,132.5 586.5,136.5C 594.525,134.912 597.191,137.912 594.5,145.5C 591.914,146.48 589.247,146.813 586.5,146.5C 587.539,170.283 576.206,180.116 552.5,176C 538.184,171.53 534.017,162.364 540,148.5C 541.5,145.667 543.667,143.5 546.5,142C 539.189,136.515 537.689,129.682 542,121.5C 544.998,118.262 548.498,115.929 552.5,114.5 Z M 556.5,146.5 C 562.5,146.5 568.5,146.5 574.5,146.5C 576.415,161.421 570.081,167.588 555.5,165C 549.053,158.559 549.387,152.392 556.5,146.5 Z"/></g>
<g><path style="opacity:0.97" fill="#363334" d="M 624.5,114.5 C 632.561,114.179 640.561,114.679 648.5,116C 658.842,121.154 661.342,128.987 656,139.5C 654.786,141.049 653.286,142.215 651.5,143C 661.53,147.234 665.03,154.734 662,165.5C 660.098,170.4 656.598,173.567 651.5,175C 641.651,176.742 631.817,176.908 622,175.5C 621.5,155.503 621.333,135.503 621.5,115.5C 622.791,115.737 623.791,115.404 624.5,114.5 Z M 633.5,124.5 C 643.15,122.367 647.317,126.034 646,135.5C 642.613,139.039 638.447,140.372 633.5,139.5C 633.5,134.5 633.5,129.5 633.5,124.5 Z M 633.5,149.5 C 637.936,149.21 642.27,149.71 646.5,151C 650.034,155.076 650.367,159.409 647.5,164C 643.078,166.104 638.412,166.937 633.5,166.5C 633.5,160.833 633.5,155.167 633.5,149.5 Z"/></g>
<g><path style="opacity:0.969" fill="#363334" d="M 761.5,113.5 C 764.167,113.833 766.833,114.167 769.5,114.5C 769.667,134.836 769.5,155.169 769,175.5C 765.333,176.833 761.667,176.833 758,175.5C 757.5,155.169 757.333,134.836 757.5,114.5C 759.099,114.768 760.432,114.434 761.5,113.5 Z"/></g>
<g><path style="opacity:0.95" fill="#363334" d="M 805.5,113.5 C 808.482,113.963 811.482,114.296 814.5,114.5C 814.333,131.17 814.5,147.837 815,164.5C 816.972,166.442 819.139,166.776 821.5,165.5C 823.372,168.718 823.705,172.052 822.5,175.5C 814.507,177.883 808.007,175.883 803,169.5C 801.553,151.222 801.053,132.889 801.5,114.5C 803.099,114.768 804.432,114.434 805.5,113.5 Z"/></g>
<g><path style="opacity:0.95" fill="#363334" d="M 1046.5,113.5 C 1049.48,113.963 1052.48,114.296 1055.5,114.5C 1055.33,131.17 1055.5,147.837 1056,164.5C 1057.97,166.442 1060.14,166.776 1062.5,165.5C 1064.37,168.718 1064.71,172.052 1063.5,175.5C 1055.51,177.883 1049.01,175.883 1044,169.5C 1042.55,151.222 1042.05,132.889 1042.5,114.5C 1044.1,114.768 1045.43,114.434 1046.5,113.5 Z"/></g>
<g><path style="opacity:0.994" fill="#363334" d="M 943.5,114.5 C 946.167,114.833 948.833,115.167 951.5,115.5C 951.667,135.503 951.5,155.503 951,175.5C 947.198,176.806 943.365,176.806 939.5,175.5C 938.5,155.511 938.167,135.511 938.5,115.5C 940.415,115.784 942.081,115.451 943.5,114.5 Z"/></g>
<g><path style="opacity:0.954" fill="#363334" d="M 1022.5,119.5 C 1023.5,119.5 1024.5,119.5 1025.5,119.5C 1025.5,123.833 1025.5,128.167 1025.5,132.5C 1028.83,132.5 1032.17,132.5 1035.5,132.5C 1035.5,135.5 1035.5,138.5 1035.5,141.5C 1032.17,141.5 1028.83,141.5 1025.5,141.5C 1025.33,148.508 1025.5,155.508 1026,162.5C 1028.54,166.513 1032.04,167.513 1036.5,165.5C 1037.21,168.786 1037.54,172.119 1037.5,175.5C 1031,177.116 1024.66,176.616 1018.5,174C 1016.38,172.269 1014.88,170.102 1014,167.5C 1013.5,158.84 1013.33,150.173 1013.5,141.5C 1011.5,141.5 1009.5,141.5 1007.5,141.5C 1007.35,140.448 1007.52,139.448 1008,138.5C 1013.05,132.29 1017.88,125.957 1022.5,119.5 Z"/></g>
<g><path style="opacity:0.954" fill="#363334" d="M 350.5,131.5 C 356.105,130.099 359.605,132.099 361,137.5C 364.54,132.432 369.207,130.766 375,132.5C 375.667,135.833 375.667,139.167 375,142.5C 371.471,143.131 367.971,143.964 364.5,145C 363.54,146.419 362.707,147.919 362,149.5C 361.819,158.411 361.319,167.245 360.5,176C 356.577,176.793 352.744,176.626 349,175.5C 348.833,168.333 348.667,161.167 348.5,154C 348.534,146.265 349.201,138.765 350.5,131.5 Z"/></g>
<g><path style="opacity:0.951" fill="#363334" d="M 379.5,131.5 C 382.85,131.335 386.183,131.502 389.5,132C 390.428,132.388 391.095,133.055 391.5,134C 394.569,145.442 397.402,156.942 400,168.5C 403.012,156.784 406.179,145.117 409.5,133.5C 413.687,131.02 418.02,130.853 422.5,133C 416.54,153.006 410.04,172.84 403,192.5C 401.2,194.317 399.034,195.484 396.5,196C 392.129,196.629 387.796,196.463 383.5,195.5C 383.508,192.455 383.841,189.455 384.5,186.5C 393.543,188.288 397.71,184.621 397,175.5C 393.914,177.22 391.581,176.553 390,173.5C 386.333,161.167 382.667,148.833 379,136.5C 378.36,134.735 378.527,133.068 379.5,131.5 Z"/></g>
<g><path style="opacity:0.951" fill="#363334" d="M 434.5,131.5 C 439.511,131.334 444.511,131.501 449.5,132C 455.904,133.281 459.737,137.115 461,143.5C 461.5,153.828 461.666,164.161 461.5,174.5C 453.273,176.402 444.94,176.902 436.5,176C 427.206,173.255 423.706,167.089 426,157.5C 428.796,152.01 433.296,148.844 439.5,148C 442.817,147.502 446.15,147.335 449.5,147.5C 449.607,145.097 448.607,143.264 446.5,142C 440.896,141.771 435.396,141.604 430,141.5C 427.12,135.93 428.62,132.597 434.5,131.5 Z M 442.5,155.5 C 444.792,155.244 446.959,155.577 449,156.5C 449.498,159.817 449.665,163.15 449.5,166.5C 446.15,166.665 442.817,166.498 439.5,166C 436.216,161.155 437.216,157.655 442.5,155.5 Z"/></g>
<g><path style="opacity:0.958" fill="#363334" d="M 473.5,131.5 C 478.487,130.349 481.987,132.016 484,136.5C 492,129.833 500,129.833 508,136.5C 508.862,138.087 509.529,139.754 510,141.5C 510.82,153.076 510.654,164.576 509.5,176C 505.909,176.789 502.409,176.622 499,175.5C 498.9,165.108 498.233,154.775 497,144.5C 491.33,140.926 487.33,142.259 485,148.5C 484.667,157.5 484.333,166.5 484,175.5C 480,176.833 476,176.833 472,175.5C 471.833,168.333 471.667,161.167 471.5,154C 471.534,146.265 472.201,138.765 473.5,131.5 Z"/></g>
<g><path style="opacity:0.964" fill="#363334" d="M 683.5,131.5 C 702.569,130.569 710.902,139.569 708.5,158.5C 699.5,158.5 690.5,158.5 681.5,158.5C 681.469,162.597 683.469,165.097 687.5,166C 692.989,166.932 698.323,166.432 703.5,164.5C 706.063,167.505 706.73,170.838 705.5,174.5C 695.61,177.575 685.943,177.075 676.5,173C 666.653,161.694 665.986,149.86 674.5,137.5C 677.084,134.72 680.084,132.72 683.5,131.5 Z M 688.5,140.5 C 693.372,141.037 696.372,143.704 697.5,148.5C 692.208,149.495 686.875,149.828 681.5,149.5C 681.274,144.403 683.607,141.403 688.5,140.5 Z"/></g>
<g><path style="opacity:0.944" fill="#363334" d="M 730.5,131.5 C 736.839,131.058 743.006,131.725 749,133.5C 749.46,136.304 748.96,138.971 747.5,141.5C 730.757,139.09 724.924,146.09 730,162.5C 730.833,163.333 731.667,164.167 732.5,165C 737.655,166.303 742.821,166.803 748,166.5C 749.289,169.351 749.789,172.351 749.5,175.5C 723.738,180.569 712.905,170.236 717,144.5C 719.442,137.888 723.942,133.555 730.5,131.5 Z"/></g>
<g><path style="opacity:0.951" fill="#363334" d="M 783.5,131.5 C 787.308,131.163 790.974,131.663 794.5,133C 790.833,139.333 787.167,145.667 783.5,152C 787.833,159.667 792.167,167.333 796.5,175C 792.299,176.818 787.966,176.985 783.5,175.5C 779.04,168.082 774.707,160.582 770.5,153C 773.961,146.578 777.294,140.078 780.5,133.5C 781.602,132.824 782.602,132.158 783.5,131.5 Z"/></g>
<g><path style="opacity:0.964" fill="#363334" d="M 841.5,131.5 C 860.569,130.569 868.902,139.569 866.5,158.5C 857.5,158.5 848.5,158.5 839.5,158.5C 839.469,162.597 841.469,165.097 845.5,166C 850.989,166.932 856.323,166.432 861.5,164.5C 864.063,167.505 864.73,170.838 863.5,174.5C 853.61,177.575 843.943,177.075 834.5,173C 824.653,161.694 823.986,149.86 832.5,137.5C 835.084,134.72 838.084,132.72 841.5,131.5 Z M 846.5,140.5 C 851.372,141.037 854.372,143.704 855.5,148.5C 850.208,149.495 844.875,149.828 839.5,149.5C 839.274,144.403 841.607,141.403 846.5,140.5 Z"/></g>
<g><path style="opacity:0.951" fill="#363334" d="M 871.5,131.5 C 874.85,131.335 878.183,131.502 881.5,132C 882.428,132.388 883.095,133.055 883.5,134C 886.569,145.442 889.402,156.942 892,168.5C 895.012,156.784 898.179,145.117 901.5,133.5C 905.687,131.02 910.02,130.853 914.5,133C 908.54,153.006 902.04,172.84 895,192.5C 893.2,194.317 891.034,195.484 888.5,196C 884.129,196.629 879.796,196.463 875.5,195.5C 875.508,192.455 875.841,189.455 876.5,186.5C 885.543,188.288 889.71,184.621 889,175.5C 885.914,177.22 883.581,176.553 882,173.5C 878.333,161.167 874.667,148.833 871,136.5C 870.36,134.735 870.527,133.068 871.5,131.5 Z"/></g>
<g><path style="opacity:0.958" fill="#363334" d="M 964.5,131.5 C 969.487,130.349 972.987,132.016 975,136.5C 983,129.833 991,129.833 999,136.5C 999.862,138.087 1000.53,139.754 1001,141.5C 1001.82,153.076 1001.65,164.576 1000.5,176C 996.909,176.789 993.409,176.622 990,175.5C 989.9,165.108 989.233,154.775 988,144.5C 982.33,140.926 978.33,142.259 976,148.5C 975.667,157.5 975.333,166.5 975,175.5C 971,176.833 967,176.833 963,175.5C 962.833,168.333 962.667,161.167 962.5,154C 962.534,146.265 963.201,138.765 964.5,131.5 Z"/></g>
<g><path style="opacity:0.99" fill="#621165" d="M 188.5,137.5 C 203,145.915 217.333,154.582 231.5,163.5C 231.829,178.343 231.496,193.01 230.5,207.5C 217.59,200.213 204.59,193.213 191.5,186.5C 176.551,178.197 161.884,169.53 147.5,160.5C 161.032,152.568 174.699,144.901 188.5,137.5 Z"/></g>
<g><path style="opacity:0.905" fill="#363334" d="M 1070.5,162.5 C 1074.77,162.203 1078.93,162.536 1083,163.5C 1086.42,175.532 1082.25,179.532 1070.5,175.5C 1069.23,171.119 1069.23,166.785 1070.5,162.5 Z"/></g>
<g><path style="opacity:0.545" fill="#852974" d="M 231.5,163.5 C 232.496,178.324 232.829,193.324 232.5,208.5C 231.508,208.672 230.842,208.338 230.5,207.5C 231.496,193.01 231.829,178.343 231.5,163.5 Z"/></g>
<g><path style="opacity:0.974" fill="#621065" d="M 40.5,171.5 C 55.0542,179.695 69.5542,188.028 84,196.5C 84.6667,212.167 84.6667,227.833 84,243.5C 55.724,227.281 27.5573,210.948 -0.5,194.5C -0.5,194.167 -0.5,193.833 -0.5,193.5C 11.6079,186.943 23.6079,180.11 35.5,173C 37.0249,171.991 38.6916,171.491 40.5,171.5 Z"/></g>
<g><path style="opacity:0.994" fill="#b64e89" d="M 191.5,186.5 C 204.59,193.213 217.59,200.213 230.5,207.5C 230.842,208.338 231.508,208.672 232.5,208.5C 199.833,227.5 167.167,246.5 134.5,265.5C 134.167,265.5 133.833,265.5 133.5,265.5C 133.184,250.422 133.517,235.422 134.5,220.5C 153.701,209.404 172.701,198.07 191.5,186.5 Z"/></g>
</svg>
