<?xml version="1.0" encoding="utf-8"?>
<!-- Generator: Adobe Illustrator 19.2.1, SVG Export Plug-In . SVG Version: 6.00 Build 0)  -->
<svg version="1.1" id="layer" xmlns="http://www.w3.org/2000/svg" xmlns:xlink="http://www.w3.org/1999/xlink" x="0px" y="0px"
	 viewBox="0 0 652 652" style="enable-background:new 0 0 652 652;" xml:space="preserve">
<style type="text/css">
	.st0{fill:#00A060;}
	.st1{fill:#0094D9;}
	.st2{fill:#0066B2;}
	.st3{fill:#90278E;}
	.st4{fill:#E10077;}
	.st5{fill:#001722;}
</style>
<rect x="143.5" y="270" class="st0" width="155.7" height="73.4"/>
<rect x="143.5" y="509.2" class="st0" width="155.7" height="62.9"/>
<polyline class="st1" points="304.2,343.4 348.7,343.4 348.7,220.5 143.5,220.5 143.5,265 304.2,265 "/>
<rect x="304.2" y="509.2" class="st1" width="44.5" height="62.9"/>
<polyline class="st2" points="353.7,343.4 398.2,343.4 398.2,171 143.5,171 143.5,215.5 353.7,215.5 "/>
<rect x="353.7" y="509.2" class="st2" width="44.5" height="62.9"/>
<polyline class="st3" points="403.2,343.4 447.7,343.4 447.7,121.5 143.5,121.5 143.5,166 403.2,166 "/>
<rect x="403.2" y="509.2" class="st3" width="44.5" height="62.9"/>
<polyline class="st4" points="143.5,72.1 143.5,116.6 452.7,116.6 452.7,343.4 497.2,343.4 497.2,72.1 "/>
<rect x="452.7" y="509.2" class="st4" width="44.5" height="62.9"/>
<rect x="143.5" y="474" class="st5" width="353.6" height="14.1"/>
<path class="st5" d="M228.7,376.6c-4.3-5.6-11.3-8.5-20.3-8.5h-35.1l-9.9,36.9h-19.9v19h14.8l-9.3,34.8h21.5l9.3-34.5h8.7l8,34.5
	h23.6l-9.5-37.7c10.5-4.1,18.2-12.6,21.2-23.5C233.9,389.4,232.8,382,228.7,376.6 M210.8,395.4c-1.6,5.9-6.6,9.5-13.1,9.5H185
	l4.5-16.9h15c2.8,0,4.9,0.7,5.9,2C211.6,391.5,211.1,394,210.8,395.4"/>
<polyline class="st5" points="226.1,458.8 247.6,458.8 271.9,368.1 250.4,368.1 "/>
<polyline class="st5" points="464.1,438.9 483.1,368.1 461.6,368.1 437.3,458.8 497.2,458.8 497.2,438.9 "/>
<path class="st5" d="M425.9,368.1h-16.4l-57.6,90.7h23.7l10.1-16.5h25.8l1.2,16.5h22.1 M396.3,423.2l13.4-22.3l1.1,22.3H396.3z"/>
<polyline class="st5" points="329.7,368.1 279.4,368.1 274.1,388 289.9,388 271,458.8 292.5,458.8 311.5,388 324.4,388 "/>
<polyline class="st5" points="334.6,368.1 329.2,388 343.8,388 324.8,458.8 346.3,458.8 365.3,388 379.4,388 384.7,368.1 "/>
</svg>
